<svg xmlns="http://www.w3.org/2000/svg" width="203" height="59" fill="none"><g clip-path="url(#a)"><path fill="#FDC305" d="M60.14 23.806a25.446 25.446 0 0 0-8.087-10.376 25.896 25.896 0 0 0-12.245-5.02 26.017 26.017 0 0 0-13.15 1.671 25.69 25.69 0 0 0-10.56 7.916 25.24 25.24 0 0 0-5.166 12.06 25.113 25.113 0 0 0 1.601 12.997 25.433 25.433 0 0 0 7.944 10.484 25.887 25.887 0 0 0 12.174 5.184 112.682 112.682 0 0 1-1.697-6.794c1.52.973 3.118 1.819 4.78 2.529 0 0 .121 2.142.282 4.533 1.796.03 3.59-.126 5.353-.466a2.099 2.099 0 0 1 0-.754c.291-1.855 1.095-5.198 1.255-7.35a15.125 15.125 0 0 0 2.913-3.68l-.06.436c-.552 4.226-1.708 8.74-2.41 9.989a5.538 5.538 0 0 1-.834 1.14 25.89 25.89 0 0 0 9.983-4.727 25.508 25.508 0 0 0 7.051-8.43 25.154 25.154 0 0 0 .873-21.341Zm-1.476 3.76c-.442.426-1.356.714-1.506-.576-.151-1.29-.191-2.192-.191-2.192s-1.939-3.402-2.662-3.442c-.723-.04-5.855 3.442-7.211 4.96-1.175 1.28-1.406 1.19-1.406 3.442 0 1.696.22 8.104.1 13.004l-8.185 2.153a64.97 64.97 0 0 1-7.834 1.706l-1.005-5.783h-.14l-2.581-13.064s-3.827-1.428-5.233-1.815a3.82 3.82 0 0 0-4.018.625 5.034 5.034 0 0 0-1.29 1.722 4.976 4.976 0 0 0-.447 2.097c.212.46.374.943.482 1.438.05.476-1.205.426-2.009.426-.803 0-.924-1.428-.291-3.104a22.51 22.51 0 0 1 1.828-3.71 11.777 11.777 0 0 1 2.079-2.867s.14-.337 1.255-.238c1.115.1 7.312.427 7.312.427l.05-2.252a145.163 145.163 0 0 1 20.329-1.33v1.816a22.85 22.85 0 0 1 8.175-1.984.923.923 0 0 1 .773.387c.342.427 2.42 2.976 2.662 3.343a27.716 27.716 0 0 1 1.838 2.976 6.157 6.157 0 0 1-.874 1.825v.01Z"/><path fill="#F06351" d="M56.706 21.495c.472.595.884 1.121 1.005 1.28a27.71 27.71 0 0 1 1.837 2.976 6.159 6.159 0 0 1-.863 1.765c-.442.427-1.356.714-1.507-.575-.15-1.29-.21-2.143-.21-2.143s-1.94-3.402-2.662-3.442c-.723-.04-5.856 3.442-7.212 4.96-1.175 1.28-1.406 1.19-1.406 3.442 0 1.488.171 6.596.13 11.14 1.819.198 4.49.694 5.294 1.864 0 0-.291-7.122 7.844-3.392 0 0 .281-9.711 11.51-7.221a43.835 43.835 0 0 0-13.76-10.654ZM46.13 19.194a88.649 88.649 0 0 0-1.406-16.397s-.15-1.29-.874-.238a14.015 14.015 0 0 0-1.205 3.968 72.077 72.077 0 0 0-12.876.337c-.823-2.728-2.23-3.968-2.902-3.64-.673.327-.754 3.253-.754 3.253l-.331 14.046a145.175 145.175 0 0 1 20.348-1.33Z"/><path fill="#E55645" d="M45.547 46.74c.13-1.062.2-2.47.24-4.028l-8.184 2.153a64.946 64.946 0 0 1-7.834 1.756l1.115 4.96c0 .108 0 .218.07.327a32.58 32.58 0 0 0 4.78 2.53 42.707 42.707 0 0 0 6.91-4.098v.06a15.13 15.13 0 0 0 2.903-3.66Z"/><path fill="#000" d="M32.14 16.09c-.05-.1 1.004.674 1.416.912.411.238.612.416.612.585 0 .169-.26.337-.622.337s-.924-.119-1.005-.258c-.08-.139.603 0 .944 0h.292a8.07 8.07 0 0 1-1.637-1.577ZM39.672 16.198s-1.004 1.27-1.095 1.33c-.09.059-.17.337.191.287a8.212 8.212 0 0 0 1.225-.278c.111-.06.07-.198-.12-.178-.19.02-.683.05-1.004.109l.853-1.26s.03-.119-.05-.01ZM36.518 22.259c.466-.203.85-.551 1.095-.992.281-.655 0-.903-.442-.992a2.486 2.486 0 0 0-1.757.337c-.392.367-.342.724 0 .992.339.263.71.483 1.104.655Z"/><path fill="#F06351" d="M36.157 23.509a2.037 2.037 0 0 1-.462.595 1.75 1.75 0 0 1-1.005.377 2.21 2.21 0 0 1-1.546-.437 2.001 2.001 0 0 1-.532-.446 1.007 1.007 0 0 0-.362-.248s.753 4.077 2.581 4.731c1.828.655 2.17-.753 2.22-1.13a5.53 5.53 0 0 0-.824-3.214c0-.298-.02-.1-.07-.228Z"/><path fill="#000" d="M34.45 24.64a3.542 3.542 0 0 1-1.328-.471 3.499 3.499 0 0 1-1.033-.948.148.148 0 0 1 0-.198.14.14 0 0 1 .1-.042.142.142 0 0 1 .101.042c.249.344.564.636.928.86.363.222.768.372 1.191.44.335-.026.658-.128.945-.301.286-.172.527-.41.702-.692l.14-.188.101.218s.382.754 1.005.794c.622.04 1.064-.417 1.637-1.28a.146.146 0 0 1 .2-.04.143.143 0 0 1 .04.199c-.669.972-1.302 1.438-1.898 1.398a1.568 1.568 0 0 1-1.124-.724 2.261 2.261 0 0 1-.747.657 2.29 2.29 0 0 1-.96.276Z"/><path fill="#FDC305" d="M36.418 37.99c2.08 0 3.766-1.665 3.766-3.719s-1.686-3.72-3.766-3.72-3.766 1.666-3.766 3.72c0 2.054 1.686 3.72 3.766 3.72Z"/><path fill="#111" d="m41.41 31.246-3.144 1.3 1.155-5.585-7.533 9.68 3.144-1.298-1.155 5.594 7.532-9.691Zm-7.423 3.799 4.178-5.366-.813 3.967 2.009-.813-4.209 5.376.814-3.968-1.979.804ZM32.581 33.587c.622 0 1.125-.498 1.125-1.111 0-.614-.503-1.111-1.125-1.111-.62 0-1.125.497-1.125 1.11 0 .614.504 1.112 1.125 1.112ZM39.13 37.614c.438 0 .793-.35.793-.784a.789.789 0 0 0-.793-.783.789.789 0 0 0-.794.783c0 .433.356.784.794.784ZM40.094 35.462a.35.35 0 0 0 .351-.348.35.35 0 0 0-.351-.347.35.35 0 0 0-.352.347.35.35 0 0 0 .352.348Z"/><path fill="#F06351" d="M46.08 20.99a57.33 57.33 0 0 0-5.112 5.167 31.876 31.876 0 0 1-5.333 4.86c-.221-.525-1.637-1.507-1.637-1.507s-3.154-2.133-5.223-3.81a31.87 31.87 0 0 1-3.154-2.975l-2.009-.109a22.711 22.711 0 0 0 12.053 8.769c.864-.14 3.294-1.855 5.112-3.254a57.578 57.578 0 0 0 6.026-5.862c.5-.587.888-1.26 1.145-1.984-1.145.377-1.868.704-1.868.704Z"/><path fill="#FDC305" d="m65.504 3.472-8.497 9.364-1.225-1.974L63.967 0l1.537 3.472ZM62.923 17.12l5.564-4.076-.783-3.71-5.424 4.771.643 3.016ZM60.181 48.972l6.157 3.154 3.023-2.321-6.72-2.728-2.46 1.895ZM1.958 5.922l3.084-3.333 9.33 8.927-1.226 2.262L1.958 5.922ZM7.412 16.149l-4.72-3.105-2.41 3.839 5.171 2.38 1.959-3.114ZM13.97 52.126 9.4 55.449 12.213 59l4.037-3.988-2.28-2.886Z"/><path fill="#F06351" d="M26.043 27.774s-3.827-1.428-5.233-1.815a3.82 3.82 0 0 0-4.017.625 5.034 5.034 0 0 0-1.29 1.722 4.977 4.977 0 0 0-.448 2.097c.213.46.374.943.482 1.438.05.476-1.205.426-2.008.426-.804 0-.924-1.428-.291-3.104a22.51 22.51 0 0 1 1.827-3.71C9.592 28.27 0 34.777 0 34.777a46.593 46.593 0 0 1 8.226.238c5.273.526 5.021 4.632 5.021 4.632a39.245 39.245 0 0 1 5.655-1.1c2.13-.14 2.28 2.102 2.28 2.102l.532 3.83c.809-.864 1.7-1.648 2.662-2.342a6.14 6.14 0 0 1 4.399-1.29l-2.732-13.073Z"/><path fill="#111" d="M86.033 41.661a8.148 8.148 0 0 1-1.406-5.148v-7.44a8.274 8.274 0 0 1 1.386-5.197c.93-1.184 2.521-1.773 4.77-1.766 2.25.007 3.774.526 4.57 1.558a6.608 6.608 0 0 1 1.336 4.453v1.746h-4.158v-1.895a9.803 9.803 0 0 0-.13-1.488 1.66 1.66 0 0 0-.472-.942 1.573 1.573 0 0 0-1.155-.367 1.483 1.483 0 0 0-.873.137 1.46 1.46 0 0 0-.634.607 5.367 5.367 0 0 0-.341 2.182v9.444a4.69 4.69 0 0 0 .391 2.182 1.502 1.502 0 0 0 1.456.724c.284.04.572-.01.824-.142.253-.132.457-.34.583-.592a5.727 5.727 0 0 0 .311-2.172V35.56h4.158v1.716a7.124 7.124 0 0 1-1.235 4.572c-.884 1.092-2.41 1.627-4.58 1.627s-3.867-.595-4.8-1.815ZM102.354 22.398h4.76l4.018 20.83h-3.957l-.713-4.602h-3.335l-.803 4.573h-4.017l4.047-20.801Zm3.666 13.61-1.266-8.373-1.255 8.372h2.521ZM114.216 25.532h-3.254v-3.134h10.766v3.134h-3.214V43.2h-4.308l.01-17.667Z"/><path fill="#444" d="M130.175 22.398h8.165v2.162h-5.222v6.874h4.238v2.054h-4.238v7.627h5.272V43.2h-8.215V22.398ZM140.761 22.398h2.009l6.025 13.817V22.398h2.451v20.83h-1.878l-6.026-14.204v14.175h-2.491l-.09-20.801ZM154.491 22.398h8.155v2.162h-5.223v6.874h4.279v2.054h-4.239v7.627h5.243V43.2h-8.215V22.398ZM165.066 22.398h4.239a7.095 7.095 0 0 1 4.69 1.3c1.004.862 1.496 2.27 1.496 4.225 0 2.645-.867 4.262-2.601 4.85l3.013 10.426h-2.852l-2.762-9.761h-2.28v9.76h-2.943v-20.8Zm4.018 8.927a3.92 3.92 0 0 0 2.711-.754 3.512 3.512 0 0 0 .824-2.688 5.762 5.762 0 0 0-.291-1.984 1.876 1.876 0 0 0-1.005-1.071 4.835 4.835 0 0 0-2.059-.347h-1.295v6.884l1.115-.04ZM179.449 41.661a9.088 9.088 0 0 1-1.276-5.307v-6.943a13.27 13.27 0 0 1 .502-3.968 4.452 4.452 0 0 1 1.748-2.39 5.993 5.993 0 0 1 3.374-.834 5.347 5.347 0 0 1 2.264.276c.725.254 1.385.66 1.934 1.192a6.88 6.88 0 0 1 1.286 4.593v.774h-2.762v-.645a11.239 11.239 0 0 0-.181-2.301 1.976 1.976 0 0 0-.763-1.22 3.041 3.041 0 0 0-1.727-.407 2.554 2.554 0 0 0-1.818.555c-.417.39-.689.907-.773 1.468a14.383 14.383 0 0 0-.171 2.47v7.727a7.367 7.367 0 0 0 .592 3.432c.273.333.619.6 1.012.78a2.871 2.871 0 0 0 2.499-.05 2.84 2.84 0 0 0 .979-.819 7.956 7.956 0 0 0 .612-3.62v-1.468h-2.671v-2.054h5.323V43.2h-1.818l-.291-2.391a3.666 3.666 0 0 1-1.406 1.969 3.74 3.74 0 0 1-2.341.68 4.733 4.733 0 0 1-2.297-.375 4.674 4.674 0 0 1-1.83-1.42ZM195.539 35.858l-4.55-13.46h2.732l3.224 10.038 3.173-10.038h2.762l-4.519 13.46v7.34h-2.812l-.01-7.34Z"/></g><defs><clipPath id="a"><path fill="#fff" d="M0 0h202.871v59H0z"/></clipPath></defs></svg>